<svg width="657" height="783" viewBox="0 0 657 783" fill="none" xmlns="http://www.w3.org/2000/svg">
<path d="M151.865 1.1709C146.373 3.04062 145.179 9.41971 149.716 12.8292C150.671 13.4891 155.566 14.479 160.7 15.2489C172.877 16.8987 175.385 18.4384 177.056 25.5874C177.892 29.4369 178.131 54.2933 178.011 99.4969L177.653 167.687L173.474 167.357C171.206 167.137 166.311 166.147 162.729 165.267C153.536 162.958 119.272 162.078 106.497 163.838C66.7408 169.117 29.1333 193.423 12.4189 224.549C3.58409 241.047 0.121812 254.465 0.00242322 271.622C-0.236354 311.327 17.1944 348.391 42.0273 360.6C53.8468 366.429 67.5765 367.089 74.7398 362.249C81.3062 357.85 82.2613 347.402 76.8888 339.703C72.8296 333.654 68.2928 331.564 56.4733 330.024C43.9375 328.374 39.6395 327.054 33.0731 322.985C26.0292 318.586 20.5373 312.207 16.8362 303.848C14.4485 298.239 14.0903 295.599 14.0903 282.071C14.0903 267.553 14.3291 266.233 17.5526 258.974C22.4475 248.086 29.8496 238.187 39.5201 229.498C49.6682 220.48 58.7417 215.31 71.3969 211.351C80.3511 208.601 82.3807 208.491 101.841 208.491C113.541 208.491 126.674 209.041 131.688 209.921C144.224 211.901 165.833 217.18 172.519 219.93L178.25 222.239L178.489 344.762C178.727 427.47 179.205 467.614 180.041 468.384C180.757 469.044 188.517 470.364 197.352 471.244C214.783 473.114 222.901 474.653 240.093 479.493C251.316 482.682 253.942 482.792 255.136 479.933C255.494 479.053 255.853 430.11 255.853 371.158C255.853 305.937 256.33 263.923 257.047 263.923C258.479 263.923 270.179 270.303 273.164 272.722C274.477 273.822 279.372 277.012 283.909 279.871C312.204 297.799 321.994 303.518 323.904 303.518C325.098 303.518 326.292 302.418 326.77 300.988C327.963 296.699 327.605 251.825 326.292 249.625C325.576 248.416 320.919 244.676 315.786 241.157C299.191 229.828 268.15 209.591 262.658 206.622C258.002 203.982 257.285 203.102 256.688 198.923C256.211 196.283 255.972 156.249 256.211 109.945C256.569 16.8986 256.211 20.9681 264.21 17.3386C266.478 16.2387 270.896 15.3589 273.88 15.3589C281.163 15.3589 286.416 11.3994 285.103 6.78009C283.193 -0.478882 287.132 -0.0389404 217.768 0.0710449C180.996 0.0710449 153.656 0.620972 151.865 1.1709Z" fill="white"/>
<path d="M467.171 1.28094C463.589 2.49078 462.395 4.03058 462.395 7.77002C462.395 11.9495 465.499 13.8192 475.289 15.249C480.184 15.9089 485.556 17.2287 487.467 18.1086C494.272 21.2981 494.033 15.6889 494.033 188.254C494.033 275.142 493.675 346.522 493.317 346.852C490.929 349.051 459.649 334.643 436.488 320.675C429.444 316.386 423.116 313.416 421.325 313.416H418.221V332.884C418.221 343.662 418.699 353.011 419.176 353.781C421.683 357.41 460.485 370.718 481.139 375.008L493.317 377.537L494.033 384.246C494.391 387.986 494.63 425.6 494.391 467.944C494.033 537.015 493.794 545.373 492.003 549.003C489.377 554.392 485.915 556.262 474.931 558.022C469.917 558.792 465.26 560.221 464.663 560.991C462.753 563.851 463.589 567.26 466.693 569.57C469.797 571.88 470.991 571.88 533.312 571.88C603.871 571.88 602.08 572.1 602.08 564.841C602.08 559.671 599.095 557.802 587.873 556.042C582.5 555.162 577.366 553.842 576.411 553.182C572.591 550.323 572.113 540.644 571.397 466.295C571.039 425.491 571.039 389.746 571.516 386.996L572.352 381.937L584.53 379.407C591.216 378.087 597.304 376.547 597.901 376.108C598.618 375.668 601.125 374.678 603.513 374.018C608.049 372.698 625.241 363.459 629.062 360.27C630.375 359.28 633.121 357.19 635.27 355.54C639.21 352.791 648.88 340.033 652.104 333.764C654.73 328.374 656.879 317.816 656.999 310.117C657.118 290.98 647.209 275.142 630.017 267.223C606.497 256.225 569.367 267.333 578.202 282.621C578.919 283.831 581.426 285.26 583.933 286.03C589.186 287.46 592.409 286.47 604.468 279.981C613.899 274.812 620.705 274.592 628.465 279.101C650.194 291.86 649.955 323.315 627.868 343.552C619.511 351.251 608.766 356.53 594.917 359.83C586.082 361.92 573.904 362.689 572.472 361.26C571.994 360.82 571.636 285.26 571.636 193.204C571.636 63.4221 571.994 25.1476 573.068 22.8379C575.337 18.3286 581.306 15.3589 588.47 15.3589C593.245 15.3589 595.275 14.809 597.782 12.6094C601.961 9.08984 601.961 4.14056 597.901 1.72089C595.036 0.071167 588.947 -0.148804 532.476 0.071167C498.212 0.181091 468.842 0.731018 467.171 1.28094Z" fill="white"/>
<path d="M348.976 194.524C326.292 194.854 307.071 195.623 306.354 196.063C305.519 196.613 304.802 198.043 304.802 199.473C304.802 203.762 307.668 205.962 315.308 207.392C325.218 209.261 330.113 211.681 332.859 215.861C335.008 219.27 335.127 224.329 335.485 383.807C335.724 486.422 336.321 551.093 337.037 555.712C337.754 559.892 339.664 566.821 341.335 571.11C350.409 594.097 352.319 599.596 354.11 607.625C360.199 634.461 359.243 654.478 350.647 679.884C343.245 701.551 328.441 721.129 304.563 740.706C295.967 747.855 271.732 759.843 258.838 763.473C235.915 769.852 220.991 772.051 200.576 772.051C163.804 772.051 133.24 763.583 102.08 744.555C88.5891 736.306 69.845 719.479 62.2042 708.7C49.4296 690.773 39.4009 667.786 35.6998 648.099C33.3121 635.891 33.1927 609.495 35.4611 597.726C37.3713 587.938 44.5346 567.92 47.2806 564.731C47.7581 564.071 50.7428 559.672 53.8469 554.832C66.8603 534.375 90.4993 517.548 117.123 509.849C144.105 502.04 177.653 501.38 201.77 508.199C230.542 516.448 254.54 534.265 265.046 555.382C274.836 575.069 276.985 589.477 273.164 609.494C266.717 643.48 240.452 667.566 209.888 667.566C192.099 667.566 180.638 663.387 169.057 652.608C155.805 640.51 148.88 621.483 151.746 605.755C153.298 597.726 160.222 582.328 163.326 580.239C164.401 579.579 165.356 577.489 165.595 575.509C166.072 572.32 165.714 571.88 161.894 570.67C156.641 569.13 142.792 570.01 135.509 572.32C127.271 574.959 117.004 582.328 111.87 589.257C103.513 600.256 99.5729 611.914 99.4535 625.882C99.3341 658.218 118.436 684.614 152.581 699.462C170.49 707.271 183.145 709.8 205.709 709.8C243.795 710.02 268.747 700.891 294.057 677.465C307.906 664.817 308.623 664.047 313.876 656.018C320.442 646.119 326.531 630.282 328.68 618.073C329.277 614.114 329.874 604.985 329.874 597.616C329.874 586.178 329.396 582.878 326.531 573.97C316.622 544.054 303.489 525.357 279.731 507.539C269.344 499.84 246.421 487.632 236.751 484.882C211.798 477.733 188.876 475.864 163.804 478.943C132.285 482.793 109.721 490.711 84.2911 506.989C74.74 513.148 56.7123 529.646 48.1163 540.204C38.3264 552.083 26.2681 575.069 22.4477 588.927C17.0752 608.285 17.0752 640.18 22.5671 660.417C26.2681 674.275 33.0733 690.663 38.8039 699.792C40.5948 702.651 42.1468 705.291 42.1468 705.621C42.1468 705.951 44.8928 709.91 48.2357 714.53C56.4735 725.748 78.6798 746.095 90.4993 753.244C112.706 766.552 140.165 776.561 166.669 780.85C179.922 782.94 184.816 783.27 203.68 782.83C221.708 782.39 227.796 781.73 239.735 779.31C292.744 768.092 327.247 748.405 363.303 708.7C367.601 703.861 378.107 688.243 382.286 680.214C393.15 659.537 402.223 631.051 404.969 609.275C405.686 603.555 406.88 594.647 407.477 589.477C409.506 572.76 409.984 544.164 410.342 379.847L410.7 217.95L413.327 214.541C416.55 210.471 422.52 207.942 430.757 207.172C433.981 206.842 437.324 206.072 438.16 205.412C440.309 203.762 440.07 197.383 437.921 195.733C435.652 193.974 408.312 193.644 348.976 194.524Z" fill="url(#paint0_linear_704_128)"/>
<defs>
<linearGradient id="paint0_linear_704_128" x1="229" y1="194" x2="249" y2="783" gradientUnits="userSpaceOnUse">
<stop stop-color="#1E47D9"/>
<stop offset="0.5" stop-color="#FD31E1" stop-opacity="0.286628"/>
<stop offset="1" stop-color="#E21010"/>
</linearGradient>
</defs>
</svg>
